<svg xmlns="http://www.w3.org/2000/svg" viewBox="0 0 64 64">
  <defs>
    <linearGradient id="bg" x1="0" y1="0" x2="1" y2="1">
      <stop offset="0%"   stop-color="#6366f1" stop-opacity="0.22"/>
      <stop offset="100%" stop-color="#a855f7" stop-opacity="0.22"/>
    </linearGradient>
  </defs>

  <!-- Background: slate-950 base -->
  <rect width="64" height="64" rx="14" fill="#020617"/>
  <!-- Gradient overlay matching from-indigo-500/20 to-purple-500/20 -->
  <rect width="64" height="64" rx="14" fill="url(#bg)"/>
  <!-- Ring matching ring-indigo-500/40 -->
  <rect width="64" height="64" rx="14" fill="none" stroke="#6366f1" stroke-width="1.5" stroke-opacity="0.4"/>

  <!-- Fingerprint icon (lucide) — 24x24 paths scaled to 40x40, centered at (12,12) -->
  <g transform="translate(12,12) scale(1.667)" stroke="#818cf8" stroke-width="1.5" stroke-linecap="round" stroke-linejoin="round" fill="none">
    <path d="M12 10a2 2 0 0 0-2 2c0 1.02-.1 2.51-.26 4"/>
    <path d="M14 13.12c0 2.38 0 6.38-1 8.88"/>
    <path d="M17.29 21.02c.12-.6.43-2.3.5-3.02"/>
    <path d="M2 12a10 10 0 0 1 18-6"/>
    <path d="M2 16h.01"/>
    <path d="M21.8 16c.2-2 .131-5.354 0-6"/>
    <path d="M5 19.5C5.5 18 6 15 6 12a6 6 0 0 1 .34-2"/>
    <path d="M8.65 22c.21-.66.45-1.32.57-2"/>
    <path d="M9 6.8a6 6 0 0 1 9 5.2v2"/>
  </g>
</svg>
